<?xml version="1.0" encoding="utf-8"?>
<!-- Generator: Adobe Illustrator 26.0.1, SVG Export Plug-In . SVG Version: 6.00 Build 0)  -->
<svg version="1.1" id="Layer_1" xmlns="http://www.w3.org/2000/svg" xmlns:xlink="http://www.w3.org/1999/xlink" x="0px" y="0px"
	 viewBox="0 0 256 256" style="enable-background:new 0 0 256 256;" xml:space="preserve">
<style type="text/css">
	.st0{fill:#B4B4B4;}
	.st1{fill:#4B4B4B;}
</style>
<path class="st0" d="M105.5,154.61c-14.42-0.01-28.85,0-43.27-0.04c-1.3,0-1.2,0.73-1.2,1.58c0,19.8,0,39.6,0,59.4
	c0,1.74,0,3.49,0,5.23c0,0.4,0,0.8,0,1.53c-15-8.65-29.75-17.16-44.49-25.66c0-42.94,0-85.88,0-128.82
	c0.09,0.02,0.19,0.03,0.28,0.05c0.3,0.26,0.57,0.57,0.91,0.77c14.44,8.35,28.89,16.69,43.33,25.03c-0.01,5.08,0,10.15-0.04,15.23
	c-0.01,0.93,0.34,1.21,1.24,1.21c14.41-0.03,28.83-0.03,43.24-0.03c0.01,8.81,0.03,17.62,0.03,26.43
	C105.53,142.54,105.51,148.57,105.5,154.61z"/>
<path class="st1" d="M105.5,154.61c0.01-6.03,0.03-12.07,0.03-18.1c0-8.81-0.02-17.62-0.03-26.43c0.01-0.15,0.03-0.3,0.03-0.44
	c0-13.56,0-27.12,0-40.68c0-0.24-0.05-0.47-0.08-0.83c-0.44,0.24-0.76,0.4-1.08,0.58c-4.59,2.65-9.17,5.3-13.76,7.94
	c-9.85,5.68-19.7,11.35-29.55,17.03c-14.45-8.34-28.89-16.68-43.33-25.03c-0.34-0.2-0.61-0.51-0.91-0.77
	c11.52-6.64,23.05-13.28,34.56-19.93c25.15-14.52,50.29-29.04,75.43-43.6c0.82-0.47,1.38-0.45,2.18,0.02
	c13.84,8.03,27.71,16.01,41.56,24.03c22.47,13.01,44.93,26.04,67.4,39.06c0.26,0.15,0.52,0.28,0.78,0.43
	c-0.37,0.33-0.7,0.73-1.13,0.97c-9.42,5.46-18.85,10.9-28.28,16.34c-4.94,2.85-9.89,5.67-14.84,8.51
	c-14.77-8.52-29.53-17.03-44.47-25.64c0,0.66,0,1.06,0,1.46c0,7.41,0,14.82,0,22.23c0,6.11,0.02,12.23,0.03,18.34
	c-0.01,5.78-0.03,11.55-0.03,17.33c0,9.07,0.02,18.14,0.03,27.21c-0.01,0.52-0.03,1.04-0.03,1.56c0,27.29-0.01,54.58,0.02,81.86
	c0,1.02-0.31,1.57-1.2,2.08c-6.73,3.83-13.43,7.71-20.12,11.62c-0.7,0.41-1.21,0.41-1.91,0c-6.72-3.92-13.46-7.81-20.22-11.67
	c-0.82-0.47-1.1-0.98-1.1-1.91c0.03-27.36,0.02-54.72,0.02-82.09C105.53,155.57,105.51,155.09,105.5,154.61z"/>
<path class="st0" d="M150.06,154.61c-0.01-9.07-0.03-18.14-0.03-27.21c0-5.78,0.02-11.55,0.03-17.33c2.67,0.01,5.33,0.02,8,0.02
	c11.67,0,23.34,0,35.01,0.01c0.85,0,1.49,0,1.47-1.19c-0.06-5.08-0.04-10.15-0.05-15.23c4.95-2.83,9.9-5.66,14.84-8.51
	c9.43-5.44,18.86-10.88,28.28-16.34c0.42-0.24,0.75-0.64,1.13-0.97c0.11,0.2,0.31,0.4,0.31,0.6c0,42.16-0.02,84.32,0,126.48
	c0,1.24-0.38,1.92-1.46,2.54c-13.89,7.97-27.75,15.99-41.63,23.99c-0.38,0.22-0.76,0.42-1.33,0.73c-0.04-0.67-0.1-1.16-0.1-1.65
	c0-21.32,0-42.64,0-63.97c0-0.41,0.09-0.85-0.04-1.21c-0.1-0.3-0.45-0.54-0.72-0.76c-0.09-0.07-0.29-0.02-0.44-0.02
	C178.9,154.6,164.48,154.6,150.06,154.61z"/>
</svg>
